<?xml version="1.0" standalone="no"?>
<!DOCTYPE svg PUBLIC "-//W3C//DTD SVG 20010904//EN"
 "http://www.w3.org/TR/2001/REC-SVG-20010904/DTD/svg10.dtd">
<svg version="1.0" xmlns="http://www.w3.org/2000/svg"
 width="275.000000pt" height="275.000000pt" viewBox="0 0 275.000000 275.000000"
 preserveAspectRatio="xMidYMid meet">
<metadata>
Created by potrace 1.11, written by Peter Selinger 2001-2013
</metadata>
<g transform="translate(0.000000,275.000000) scale(0.100000,-0.100000)"
fill="#000000" stroke="none">
<path d="M1470 2747 c-3 -2 -25 -7 -50 -10 -37 -5 -99 -17 -155 -31 -11 -3
-18 -6 -120 -43 -374 -137 -694 -470 -815 -848 -18 -55 -35 -107 -38 -115 -2
-8 -7 -33 -9 -54 -2 -22 -8 -47 -13 -55 -4 -9 -7 -108 -6 -221 2 -212 9 -257
58 -410 46 -144 121 -289 214 -413 57 -76 218 -235 282 -278 26 -18 49 -36 52
-39 18 -24 314 -164 371 -175 8 -2 44 -10 80 -18 35 -9 80 -19 99 -23 50 -10
359 -13 395 -3 17 4 48 10 70 13 22 3 53 9 69 13 l29 9 0 108 c-1 59 -3 109
-5 112 -3 2 -34 -2 -69 -11 -130 -29 -293 -38 -434 -22 -135 15 -321 82 -446
160 -111 70 -119 77 -219 177 -88 90 -156 182 -208 285 -30 61 -93 230 -90
243 1 4 -4 26 -10 48 -10 33 -26 193 -24 239 2 79 15 185 27 236 9 35 18 74
21 87 2 13 18 56 34 96 87 220 232 400 430 531 193 129 390 189 645 197 54 2
205 -16 263 -31 46 -12 74 -15 78 -9 8 13 9 206 1 214 -5 6 -55 19 -107 30
-36 7 -394 17 -400 11z"/>
<path d="M819 2059 c-3 -99 -1 -1371 3 -1374 3 -4 235 -8 294 -6 21 1 21 2 21
321 0 176 2 322 4 325 3 2 77 -68 164 -155 88 -88 163 -160 166 -160 10 0 219
209 219 218 0 4 -125 129 -277 277 -152 149 -341 333 -419 411 -182 179 -174
172 -175 143z"/>
<path d="M1830 1789 c-151 -152 -276 -284 -278 -293 -5 -22 17 -48 36 -44 7 2
121 111 253 243 218 219 239 237 239 210 0 -26 -33 -63 -225 -258 -124 -126
-225 -234 -225 -241 0 -17 21 -36 40 -36 8 0 101 88 206 195 106 107 194 195
197 195 3 0 4 -12 3 -27 -2 -21 -45 -72 -184 -213 -100 -101 -182 -189 -182
-196 0 -19 27 -36 47 -30 10 3 85 73 167 156 82 82 150 150 151 150 1 0 1
-207 1 -461 -1 -458 -1 -460 20 -480 l22 -20 19 20 c18 19 19 44 18 522 l0
502 42 43 c24 23 44 40 46 36 2 -4 3 -248 2 -542 -1 -294 2 -543 7 -552 5 -10
17 -18 27 -18 44 0 44 0 44 617 l0 585 39 41 c21 22 39 37 39 34 1 -4 3 -286
4 -627 1 -341 3 -624 4 -629 2 -16 41 -23 56 -11 13 11 15 110 15 690 0 373
-3 685 -6 694 -11 30 -50 18 -93 -29 -44 -47 -64 -57 -60 -27 2 9 0 29 -4 45
-12 43 -44 35 -108 -29 l-56 -55 2 33 c3 44 -9 74 -32 79 -13 3 -93 -71 -293
-272z m415 110 c-4 -22 -65 -93 -83 -96 -21 -5 -1 51 31 84 37 38 58 43 52 12z"/>
</g>
</svg>
